<?xml version="1.0" encoding="utf-8"?>
<!-- Generator: Adobe Illustrator 25.2.0, SVG Export Plug-In . SVG Version: 6.00 Build 0)  -->
<svg version="1.1" id="Layer_1" xmlns="http://www.w3.org/2000/svg" xmlns:xlink="http://www.w3.org/1999/xlink" x="0px" y="0px"
	 viewBox="0 0 88 88" style="enable-background:new 0 0 88 88;" xml:space="preserve">
<style type="text/css">
	.st0{clip-path:url(#SVGID_2_);}
	.st1{fill:#E1F6FA;}
	.st2{fill:#262626;}
	.st3{fill:#606262;}
	.st4{fill:#FFFFFF;}
	.st5{opacity:0.9;}
	.st6{opacity:0.9;fill:none;stroke:#3B5648;stroke-width:3.300000e-03;stroke-miterlimit:10;enable-background:new    ;}
	.st7{fill:none;stroke:#3B5648;stroke-width:3.300000e-03;stroke-miterlimit:10;}
	.st8{fill:#FF9933;}
	.st9{font-family:'ColonnaMT';}
	.st10{font-size:22.1051px;}
	.st11{fill:#FF0000;}
</style>
<g>
	<defs>
		<rect id="SVGID_1_" y="0" width="88" height="88"/>
	</defs>
	<clipPath id="SVGID_2_">
		<use xlink:href="#SVGID_1_"  style="overflow:visible;"/>
	</clipPath>
	<g class="st0">
		<path class="st1" d="M9.6,40C-5.9,27.5,4.1,4.9,22.7,12c6.2,2.6,19.2-10.7,28.7,1c5.8,7.2,9.8,3.7,22.2,1.9
			c14.8-1.5,23.9,31.1-3,38.8c-13.7,2.7-15.7,15.2-33.4,12.5C19.3,63.4,25.1,52.4,9.6,40z"/>
		<path class="st2" d="M55.4,36.9c0,6.1-0.1,12.2,0,18.3c0.1,5.6,0.2,11.2,0.1,16.8c-0.1,3.7-0.9,7.6-7.6,7.7
			c-2.9,0.1-5.6,0-8.5-0.1c-1.6-0.1-3.8,0.1-5.9-0.1c-4.1-0.4-6.2-3.3-6.3-7.6c-0.1-6.9-0.3-38.8-0.2-45.8c0-1.9,0-3.5,0.4-5.4
			c0.4-1.8,2.3-3.1,4-3.1c4.5-0.2,9-0.2,13.5-0.2c2,0,4.4,0,6.3,0.2c1.8,0.2,3.4,0.8,3.6,3.1c0.3,3,0.4,6.3,0.5,9.3
			C55.4,32.4,55.4,34.7,55.4,36.9z"/>
		<path class="st3" d="M38.2,22.6c-0.1-0.2,0-0.4,0.1-0.5c0,0,0,0,0.1,0c1.6,0,3.2-0.1,4.8-0.1c0.2,0,0.3,0,0.5,0
			c0.2,0,0.3,0.1,0.2,0.3c0,0.2,0,0.4-0.3,0.4c-1.5-0.2-3.1,0-4.6,0C38.7,22.6,38.5,22.6,38.2,22.6C38.2,22.7,38.2,22.6,38.2,22.6z"
			/>
		<path class="st3" d="M41.4,20.1c0,0.1-0.1,0.2-0.3,0.3c0,0,0,0-0.1,0c-0.1,0-0.1,0-0.2,0c-0.2,0-0.3-0.1-0.3-0.3c0,0,0,0,0-0.1
			c0-0.3,0-0.5,0.3-0.6c0,0,0,0,0.1,0c0.1,0,0.2,0,0.3,0.1c0,0,0,0,0.1,0.1c0,0,0,0,0,0c0,0,0,0,0,0.1c0,0,0,0,0,0.1
			C41.4,19.9,41.4,20,41.4,20.1C41.4,20.1,41.4,20.1,41.4,20.1z"/>
		<path class="st3" d="M35.1,22.7c-0.2,0.1-0.4,0-0.5-0.1c0,0,0,0-0.1,0c-0.1-0.1-0.1-0.1-0.1-0.2c-0.1-0.2,0-0.4,0.1-0.5
			c0,0,0,0,0.1-0.1c0.3-0.2,0.6-0.3,0.9-0.1c0,0,0,0,0.1,0.1c0.1,0.1,0.1,0.2,0.1,0.4c0,0,0,0.1,0,0.1c0,0,0,0,0,0.1
			c0,0,0,0.1-0.1,0.1c0,0,0,0-0.1,0.1C35.3,22.5,35.2,22.6,35.1,22.7C35.1,22.7,35.1,22.7,35.1,22.7z"/>
		<path class="st4" d="M54.1,68.1c-0.6-10.8,0.1-21.6-0.4-32.4c-0.1-2.7-0.1-4.3-0.2-7c0-1.8-0.2-2.4-0.2-3.2
			c-0.1-1-7.9-0.2-8.6-0.2c-4.4-0.1-10,0.2-14.9,0.3c-0.2,0-0.4,0.1-0.5,0.4c-0.2,1-0.2,3-0.2,3.8c-0.2,5.3,0,10.5-0.2,15.9
			c-0.2,6.7,0.6,11.3,0.5,18.1c0,2,0,4,0.2,6.8c0,0.6,1.3,0.6,1.6,0.6c7-0.3,15.6,0.5,22.6-0.3c0.1,0,0.2-0.1,0.2-0.3
			c0-1,0-0.8,0-1.7L54.1,68.1z"/>
		<path class="st3" d="M43.5,75.7c0,0.5-0.1,1-0.5,1.5c-0.3,0.5-0.8,0.8-1.4,0.7c-1,0-1.8-0.4-2.4-1.3c-0.2-0.3-0.3-0.7-0.3-1.1
			c0-0.2,0.1-0.4,0.2-0.6c0.3-0.5,0.6-1,1.1-1.3c0.4-0.3,0.8-0.3,1.3-0.3c1,0.2,1.8,0.9,2,1.9C43.5,75.4,43.5,75.5,43.5,75.7z"/>
		<g class="st5">
			<g class="st5">
				<g class="st5">
					<g class="st5">
						<path class="st6" d="M81.6,52.3l-2,0"/>
					</g>
					<g class="st5">
						<path class="st6" d="M75.7,40l1.7-1"/>
					</g>
					<g class="st5">
						<path class="st6" d="M49.9,62.2l1.7-1"/>
					</g>
					<g class="st5">
						<path class="st6" d="M45.3,49.6l2,0"/>
					</g>
					<g class="st5">
						<path class="st6" d="M50.3,38l1.5,1.3"/>
					</g>
					<g class="st5">
						<path class="st6" d="M72.8,61l1.5,1.3"/>
					</g>
				</g>
			</g>
		</g>
		<path class="st7" d="M64.1,31.9l0.1,2"/>
		<text transform="matrix(0.8182 0 0 1 31.1941 51.418)" class="st8 st9 st10">F</text>
		<text transform="matrix(0.8182 0 0 1 39.9471 51.418)" class="st11 st9 st10">D</text>
	</g>
</g>
</svg>
