<?xml version="1.0" encoding="utf-8"?>
<!-- Generator: Adobe Illustrator 25.2.0, SVG Export Plug-In . SVG Version: 6.00 Build 0)  -->
<svg version="1.1" id="Layer_1" xmlns="http://www.w3.org/2000/svg" xmlns:xlink="http://www.w3.org/1999/xlink" x="0px" y="0px"
	 viewBox="0 0 154 154" style="enable-background:new 0 0 154 154;" xml:space="preserve">
<style type="text/css">
	.st0{clip-path:url(#SVGID_2_);}
	.st1{clip-path:url(#SVGID_4_);}
	.st2{fill-rule:evenodd;clip-rule:evenodd;fill:#E2F3F7;}
	.st3{fill-rule:evenodd;clip-rule:evenodd;fill:#FF3008;}
	.st4{fill-rule:evenodd;clip-rule:evenodd;fill:#FFFFFF;}
	.st5{fill-rule:evenodd;clip-rule:evenodd;fill:#FF5E3E;}
	.st6{fill-rule:evenodd;clip-rule:evenodd;fill:#FF4F2D;}
	.st7{fill:none;stroke:#C7C6B5;stroke-width:0.4;}
	.st8{fill-rule:evenodd;clip-rule:evenodd;fill:#C7C6B5;}
	.st9{fill-rule:evenodd;clip-rule:evenodd;fill:#FDF88D;}
	.st10{fill-rule:evenodd;clip-rule:evenodd;fill:#9CD9E2;}
	.st11{fill-rule:evenodd;clip-rule:evenodd;fill:#FF431E;}
	.st12{fill-rule:evenodd;clip-rule:evenodd;fill:#D2EEF2;}
	.st13{fill-rule:evenodd;clip-rule:evenodd;fill:#325847;}
	.st14{fill-rule:evenodd;clip-rule:evenodd;fill:#DA260D;}
	.st15{fill-rule:evenodd;clip-rule:evenodd;fill:#C6A581;}
	.st16{fill:none;stroke:#FF0000;stroke-width:0.25;}
	.st17{fill-rule:evenodd;clip-rule:evenodd;fill:#EDB9B6;}
	.st18{fill-rule:evenodd;clip-rule:evenodd;fill:#22464C;}
	.st19{fill-rule:evenodd;clip-rule:evenodd;fill:#528C8F;}
	.st20{fill-rule:evenodd;clip-rule:evenodd;fill:#E7E5D5;}
	.st21{fill:none;stroke:#EDB9B6;stroke-width:0.5;}
	.st22{fill-rule:evenodd;clip-rule:evenodd;fill:#EBEADE;}
	.st23{fill:#FF9933;}
	.st24{font-family:'ColonnaMT';}
	.st25{font-size:11.426px;}
	.st26{fill:#FF0000;}
</style>
<g>
	<defs>
		<rect id="SVGID_1_" y="0" width="154" height="154"/>
	</defs>
	<clipPath id="SVGID_2_">
		<use xlink:href="#SVGID_1_"  style="overflow:visible;"/>
	</clipPath>
	<g class="st0">
		<g>
			<defs>
				<rect id="SVGID_3_" x="-2" y="7" width="161" height="139"/>
			</defs>
			<clipPath id="SVGID_4_">
				<use xlink:href="#SVGID_3_"  style="overflow:visible;"/>
			</clipPath>
			<g class="st1">
				<path class="st2" d="M106.2,143.2c31.8-7.9,42.4-31.9,45-50.8c2.4-17.1-1.1-27.2-14.9-28.7c-13.8-1.5-10.4-11-9.5-19.3
					c0.9-8.3,2.8-16.7-3.6-26.9c-7.8-12.4-28.7-17.2-44.7,5c-16,22.2-28.6,20-43.5,17.5c-7.7-1.3-23.6-6.5-31.6,8.7
					c-16.1,30.6,30.4,77.4,30.4,77.4S58.8,155,106.2,143.2z"/>
				<path class="st3" d="M40.2,32.8c-0.1,0.3-6.7,30-6.1,30.3c0.9,0.5,4.2,1.5,8,2.3c4.1,0.8,8.4,1.3,8.6,1.1c0.4-0.4,7-30.6,7-30.6
					L40.2,32.8z"/>
				<path class="st4" d="M37,57.5c0.3,0.2,11.9,2.6,12.2,2.2c0.3-0.4,3.1-16,3.1-16s-12.2-1.6-12.2-1.4C40.1,42.6,36.8,57.3,37,57.5
					z"/>
				<path class="st5" d="M40.5,40.1c-0.1,0.5-1.9,4.2-0.3,5c1.6,0.8,9.3,2,10.2,1.9c0.9-0.1,1.5,0,1.9-1.1c0.4-1.2,0.9-3.3,0.9-3.3
					L40.5,40.1L40.5,40.1z"/>
				<path class="st6" d="M40.2,31.7c-0.2,0.2-0.9,2-0.5,3.2c0.2,0.7,0.9,1.1,2,1.4c2.9,0.8,13.1,2.3,14.6,2.8c1.6,0.4,2.7-1.8,3-2.7
					l0.2-0.9C59.5,35.5,40.6,31.3,40.2,31.7z"/>
				<path class="st7" d="M96.1,49.7c0,0,2.6-0.2,3.4,1.9c0.8,2.1,3.4,7.5,3.4,7.5"/>
				<path class="st8" d="M94.6,44.8c0.6-0.9,2,1.4,2,3c0.1,1.6-0.1,2.5-1.1,3.7c-0.7,0.9-0.9,0.8-1.1,0.9
					C93.6,52.5,94,45.7,94.6,44.8z"/>
				<path class="st9" d="M108.5,57.7c0,0,1.4,0.8,1.8,3.2c0.4,3.1-1.3,4.7-1.3,4.7L108.5,57.7L108.5,57.7z"/>
				<path class="st10" d="M87.3,103.8c-0.4-0.6-1-1.3-1.2-1.1c-0.3,0.2-0.8,1.2-0.9,1.7c0,0.4,0.9,0.1,1.3-0.1
					C86.9,104.2,87.3,103.8,87.3,103.8z M97.7,110.3c0.1,0.5,0,1-0.5,1.2c-0.3,0.1-3.5,0.3-6,0.3c-2.5-0.1-9.5-0.2-10.3-0.2
					c-0.9-0.1-1.9-0.1-2.1-0.4c-0.4-0.5,0.4-2.6,0.4-2.6s5.3,0.7,8.4,0.9c3.1,0.2,7.4,0.6,8.4,0.5c1-0.1,1.2-0.2,1.2-0.2
					S97.7,109.9,97.7,110.3L97.7,110.3z M88.5,104.2c0,0-0.1,0.5-0.6,0.8L88.5,104.2z M89.6,104.8c0,0-0.1,0.7-0.4,1L89.6,104.8z
					 M90.6,105.4c0,0,0,0.7-0.4,1.1L90.6,105.4z M91.7,106.1c0,0,0,0.7-0.4,1.1L91.7,106.1z M92.7,107c0,0,0.1,0.4-0.3,0.8L92.7,107
					z"/>
				<path class="st4" d="M26.1,94.5c-1,0-6.4-0.6-7.1,1.3c-0.6,1.9,0,6.4,1.3,7.4C21.6,104.2,26.1,94.5,26.1,94.5z"/>
				<path class="st11" d="M115.3,95.4c-2.3,3.2-6,10.1-9.4,13.6c-3.5,3.7-8.5,8.2-13.5,8.4c-3.7,0.1-12.2,0.1-17.7-0.1
					c-2-0.1-11.2-0.5-14.2-3.1c-3-2.7,6.7-12.7-2.7-18.8c-9.2-6-14.1-7.3-14.1-7.3l6.2-3.1L78.4,88c0,0-7.4,9.1-3.1,15.1
					c2.8,3.9,5.2,3.4,9.4,4.4c4.2,1,8.1,1.3,11.3-1.6c3.2-2.9,8.9-11,9.9-14.6"/>
				<path class="st12" d="M49,106.3l-9.1-1.6l0.2-0.6l9.7,1.1L49,106.3z"/>
				<path class="st13" d="M47.6,86.4c0,0-0.4-4.2,0.6-5.5c1-1.3,2.1-1.9,4.1-1.9s14.6,0.2,16.3,0c2.7-0.4,8.6,1,9.8,1.5
					c1.1,0.5,2.1,5.4,1.8,6C79.9,87,78.4,88,78.4,88L47.6,86.4z"/>
				<path class="st14" d="M47.6,86.4c0,0-0.4-4.2,0.6-5.5c1-1.3,2.1-1.9,4.1-1.9s14.6,0.2,16.3,0c2.7-0.4,8.6,1,9.8,1.5
					c1.1,0.5,2.1,5.4,1.8,6C79.9,87,78.4,88,78.4,88L47.6,86.4z"/>
				<path class="st15" d="M51.9,65.2c-1.4,1.8-3,5.4-2.5,7.4c0.5,2.1,1.9,5.7,3.7,5.9c22.8,1.7,29.2-1.3,30.1-0.2
					c0.3,0.4-1,3,0.1,7.8c2.6,10.5,2.2,16.7,2.3,17.9c0,0.6,5.4,1.3,4.6-0.1c-0.8-1.4,0.4-19.4,0.5-23.3c0.2-7.3-1.3-9.6-4.2-10.5
					c-2.1-0.7-17.1-1.5-20.3-2C63.1,67.7,51.9,65.2,51.9,65.2L51.9,65.2z M68.9,28.9c-0.8,1-0.8,2.7-0.9,3.5
					C68,34.9,69.5,37,69.5,37s0-0.2-1.9-0.7c-1.9-0.4-5.5-1.6-5.5-1.6s1.1-2.7,1.5-3.8c1.5-3.8,0.2-7.4,0.3-7.7
					c0.1-0.3,2.9,1.3,2.9,1.3l1.2,4.2L68.9,28.9L68.9,28.9z"/>
				<path class="st15" d="M73.6,17.8c0.5,0.5,1.1,2.5,0.7,4.6c-0.3,1.9,0.9,3.2,1,3.6c0.2,0.5-1,0.4-1,0.4S74,28,73.8,28.7
					c-0.2,0.7-0.5,1.6-1.6,1.6c-0.8,0-3.9,0-4.8-2.1c-0.9-2.1-1.6-5.4-0.5-7C68,19.7,72.9,17.1,73.6,17.8z"/>
				<path class="st16" d="M66.4,23l7.4,0.5 M74.9,23.8c-0.1,1-0.5,1.7-0.8,1.7c-0.3,0-0.4-0.9-0.3-1.8c0.1-1,0.5-1.7,0.8-1.7
					C74.9,22,75,22.8,74.9,23.8L74.9,23.8z"/>
				<path class="st17" d="M68.6,34.9c0,0,1.8,3.4,3.1,6.7c1.4,3.6,0.8,6.5-1.1,7.7c-2.8,4.3-5.7,14.6-5.7,14.6l-13.6,1.3L51,61.6
					c0,0,1.2-13.8,4.4-20.5c2.4-5,6.8-8.3,7.5-8.4C64.5,32.6,68.6,34.9,68.6,34.9"/>
				<path class="st18" d="M61.4,24.8c-3.5,2.1-2.8-9.9-14.2-6c-5.2,1.8-10,1.9-12.5-1.1c-3.7-4.7-4.5,8.4,0.8,12.8
					c4.6,3.8,8.7,1,13.8-1.5c5.1-2.6,6.7,1.3,10.3,2.2c5.9,1.5,10.3-3.6,7.9-10.1C66.8,19,67.7,21.1,61.4,24.8"/>
				<path class="st19" d="M82.7,69.4c0,0-9.4-0.5-15.1-1.4c-1.2-0.2-2.2-0.6-2.2-0.6l-0.1-4.5l-13-0.7l-2.9,6
					c-1.1,6-0.7,12.6,7.1,13.2c6.7,0.5,22.8-0.7,23.5-0.8c0.8-0.6,2.2-5.5,2.7-7.5C82.8,69.5,82.7,69.4,82.7,69.4z"/>
				<path class="st15" d="M71.3,54.5c2.4,0.5,8,2.2,9,2.5c3,0.9,12.3,2.6,12.9,2.5c0.4-0.1,1.2,0.4,1.3,2.1c0,0.5,0.1,1.7-0.7,1.5
					C93.2,63,91.7,63,91.2,63c-1.1-0.1-0.8,0.1-4.4-0.1c-4.5-0.3-11.3-0.6-17.8-2c-0.4-0.1-1.3-0.8-1.7-2c-0.4-1,0.3-0.9,0.7-2.2
					C68.6,54.6,71.3,54.5,71.3,54.5z"/>
				<path class="st18" d="M109.4,109.1c-0.7,1-0.9,6.6,1.1,10.1c2,3.5,5.8,7,12.7,6.9c6.9-0.1,10.3-3.4,12.5-8
					c2.7-5.6,0.8-11.7-2-15.4c-2.8-3.7-8.1-5.7-14.7-3.7C111.2,101.5,109.4,109.1,109.4,109.1"/>
				<path class="st20" d="M116.7,109.6c-0.2,0.8-0.7,2.3,0.1,4.4c0.8,2.1,3.1,4.1,6.3,4.1c3.2-0.1,5.3-1.9,5.8-4.5
					c0.6-2.6-0.5-5.8-2.2-7.1c-1.7-1.3-4.6-1.8-6.9-0.5C117.4,107.2,116.7,109.6,116.7,109.6z"/>
				<path class="st18" d="M25.8,108.7c-0.7,1-0.9,6.6,1.1,10.1c2,3.5,5.8,7,12.7,6.9c6.9-0.1,10.3-3.4,12.5-8
					c2.7-5.6,0.8-11.7-2-15.4c-2.8-3.7-8.1-5.7-14.7-3.7C27.7,101,25.8,108.7,25.8,108.7"/>
				<path class="st20" d="M33.3,108.7c-0.2,0.8-0.7,2.3,0.1,4.4c0.7,2.1,3.1,4.1,6.3,4.1c3.2-0.1,5.3-1.9,5.8-4.4
					c0.6-2.6-0.5-5.8-2.2-7.1c-1.7-1.3-4.6-1.8-6.9-0.5C34,106.3,33.3,108.7,33.3,108.7z"/>
				<path class="st11" d="M101.3,67.1c0,0-1.9,0.2-1.5,2.9c0.4,2.7,3.6,12.1,3.3,20.2c-0.3,8.3-2.7,10.5-5.8,14.3
					c-3.1,3.8-4.4,4.6-4.4,4.6s4.2,0.8,8.1-1.7c4-2.5,23.6-11.8,23.6-11.8s2.7-8.6-8.7-15.5c-8.6-5.2-12.4-12.6-12.6-13.7
					C102.2,66.9,101.3,67.1,101.3,67.1z"/>
				<path class="st11" d="M97.9,63.2c0.2-0.1,1.3,0.1,1.8,0.6c0.6,0.5,1.3,1.6,1.6,3.7c0.8-0.1,1.5-0.4,2.1-1c0,0-0.2-0.1,0.9,0
					c1,0.1,4.1-0.2,4.6-0.7c0.5-0.5,0.6-5.7-0.8-8.7c-1.2-0.4-3.4-0.4-5.8,1.5c-2.3,1.8-2.9,2.6-3.5,2.8c-0.6,0.2-1.6,0.4-1.6,0.4
					L97.9,63.2z M106.9,118.5c0,0-3.8-10.4,0.9-17.5c4.2-6.3,12.4-8.8,18.7-6.8c6.3,2,10.8,7.7,10.4,9.3c-0.4,1.6-2.7,2.2-5.4,2.2
					s-6.8-2-11.1,0.4c-3.7,2-2.5,4.5-4.1,7.7C114.8,117,111.8,119.6,106.9,118.5z M18.1,105.7c-0.9-1.1,7.4-14.4,18.7-16.8
					c5.8-1.2,11-1.5,15.6,0.2c8.8,3.4,12.9,13.4,12.5,19.9c-0.1,1.9-0.3,3.8-0.6,5.6c0,0-16.9,0.4-33.2-4
					C27.2,109.6,19,106.8,18.1,105.7z"/>
				<path class="st21" d="M40.8,105.2c0,0,4.7,0.8,9.1,0.9 M39.9,109.1c0,0,4.7,0.8,9.1,0.9L39.9,109.1z M40.4,107.3
					c0,0,4.7,0.8,9.1,0.9L40.4,107.3z"/>
				<path class="st18" d="M64.3,28.1c1.6-0.6-0.7-1.6-1.4-2.6c-0.3-0.5-1.1-1.5-0.1-2.2c1-0.6,1.2-0.6,2-1.8
					c0.8-1.2,0.9-4.8,2.8-5.8c3.5-1.8,7.6-0.2,7.5,2.1c0,1,0.1,3.5-3.9,4.3c-1.5,0.3-2.9-1.1-2.6,3c0.2,2.9-2.3,4.9-3.6,5.2"/>
				<path class="st20" d="M75.9,18.3c0-1.1-1.1-4.1-3.6-5.3c-2.8-1.4-5.2-2.3-9.4-0.5c-4.3,1.9-5.3,6.1-4.9,8.5c0.4,2.4,2.1,6,2.1,6
					s2.9,0.7,3.9,0.8c1,0.1,2,0.1,2.9-1c0.9-1.1,0.8-1.7,0.8-3.5c-0.1-1.7,0.3-2.5,1.2-3.2c0.7-0.6,1.5-0.9,3.1-1
					C73.6,18.9,75.9,19,75.9,18.3z"/>
				<path class="st14" d="M107.8,101.1c-0.7,1.1-1.3,2.3-1.6,3.6c7.2-3.7,18.5-9,18.5-9s0.2-0.7,0.3-1.8
					C118.9,92.7,111.7,95.2,107.8,101.1z M64.3,114.6c0,0,0.4-2.6,0.6-5.6c0.4-6.5-3.8-16.5-12.5-19.9c-2.5-1-5.3-1.3-8.2-1.2
					l-0.5,0.2c0,0,4.9,1.2,14.1,7.3c9.4,6.1-0.3,16.1,2.7,18.8c0.2,0.1,0.3,0.3,0.5,0.4C63.1,114.6,64.3,114.6,64.3,114.6z
					 M75.2,102.8c0,0,0.9,8.7,9.6,8.2c8.7-0.5,10.1-4.2,10.1-4.2s-6.3,1.3-13.5,0.1C77.7,106.2,76.7,104.7,75.2,102.8z"/>
				<path class="st20" d="M99.5,108.8c0.1,0.4,0,0.8-0.4,1c-0.3,0.1-2.9,0.3-4.9,0.2c-2,0-7.9-0.1-8.5-0.2c-0.7-0.1-1.5-0.1-1.7-0.3
					c-0.3-0.4,0.3-2.2,0.3-2.2s4.4,0.6,7,0.7c2.6,0.1,6.1,0.5,7,0.4c0.8-0.1,1-0.1,1-0.1S99.5,108.4,99.5,108.8"/>
				<path class="st4" d="M99.3,108.3c0,0-0.1-0.6-0.6-0.8c-0.5-0.2-2.9-1-5.2-2.5c-1.1-0.7-2.3-1.5-2.7-1.7s-1.6,0.8-1.7,0.9
					c-0.1,0.1-0.9,0.3-1.4,0.3c-0.5,0-0.7-0.1-0.9-0.3c-0.2-0.2,0-1.2-0.5-1.2c-0.5,0-0.9,0.1-1,0.3c-0.1,0.2-0.5,1.6-0.6,2.2
					c-0.1,0.6-0.3,1.8-0.3,1.8c0,0.1,1.5,0.5,4.6,0.7c2.8,0.2,7.7,0.5,8.6,0.5C98.7,108.5,99.3,108.3,99.3,108.3"/>
				<path class="st3" d="M52.4,44.6c0,0,9.1-5.2,13.4-4c-0.3-1.4-2.6-2.8-4.7-2.9c-2.9-0.2-5.3,1.5-6.8,3.8
					C53.9,42.1,52.4,44.6,52.4,44.6z M67.9,52.8c0,0-11.3,6.8-11.8,7.3c-0.8,0.8,0,3.1,0.6,3.1c0.6,0,10.5-6.1,10.5-6.1l-0.2-2.5
					L67.9,52.8L67.9,52.8z"/>
				<path class="st22" d="M57.6,60.4l-7,1.6l0.2,2.1l7-2.4L57.6,60.4z"/>
				<path class="st15" d="M58.4,41.9c0.3,1.5,7,13.9,8.4,16.7c0,0,1.6,3.5,4.7,2c3-1.5,0.3-6.9,0.3-6.9c-1-3-3-6.8-2.9-6.5l-4.3-7.1
					C64.6,40.1,60.1,39.6,58.4,41.9z"/>
				<path class="st17" d="M66.1,39.7c1.2,1.8,3.8,5.8,4.6,6.8c-0.5,1.6-3.1,3.8-7.9,6.2c-3.6-4.2-4.4-7.9-4.5-10.1
					c-0.1-1.7,0.6-3.3,2-4.3c0.8-0.6,2-1,3.3-0.6C64.7,38.1,65.5,38.8,66.1,39.7z"/>
				<path class="st18" d="M98,62.1c0,0.6-0.2,1-0.6,1.4c-0.2,0.2-0.4,0.3-0.6,0.3c-0.2,0.1-0.4,0.1-0.7,0.1c-0.7-0.1-1,0.1-1.6-0.9
					c-0.2-0.3-0.3-0.8-0.2-1.2c0.1-0.5,0.4-0.9,0.8-1.2c0.2-0.2,0.4-0.3,0.7-0.3c0.2-0.1,0.5-0.1,0.7,0c0.2,0.1,0.5,0.2,0.7,0.3
					c0.2,0.2,0.3,0.3,0.5,0.6C97.9,61.5,98,61.8,98,62.1"/>
				<path class="st15" d="M92.8,59.5c0,0,2.4-1.1,3.7-0.9c1.3,0.1,5.2,2.3,5,3.2c-0.2,0.6-1.8-0.1-2.1-0.4c-0.3-0.3-0.2,1.3-0.6,1.7
					c-0.4,0.4-1.2,0.6-1.2,0.4c-0.1-0.5,0.1-2.2-0.5-2.6c-0.5-0.4-1.5-0.6-2.1,0.4c-0.1,0.2-0.2,0.3-0.2,0.5c0,0.2,0,0.4,0.1,0.6
					c0.1,0.2,0.2,0.3,0.3,0.5c0.1,0.1,0.3,0.2,0.5,0.3c0.4,0.1,1.7-0.1,1.8,0.5c0.1,0.4,0.1,0.5-0.1,0.6c-0.3,0.1-1.1,0-1.6,0.1
					c-0.5,0-0.9,0.2-1.4-0.1c-0.6-0.3-2-1.4-2-1.4L92.8,59.5z"/>
				<path class="st8" d="M67.6,21c-0.7-2,0.1,0.1-6.1,3.8c-1.3,0.8-2-0.3-2.9-1.9c0.6,2,1.6,4,1.6,4s2.9,0.7,3.9,0.8
					c1,0.1,2,0.1,2.9-1c0.9-1.1,0.8-1.7,0.8-3.5c0-0.7,0-1.2,0.1-1.6C67.7,21.4,67.6,21.2,67.6,21"/>
				<path class="st17" d="M69.5,37L69.5,37C69.5,37,69.5,37,69.5,37z"/>
			</g>
		</g>
	</g>
</g>
<text transform="matrix(0.8025 0.1593 -0.1947 0.9809 38.5893 54.3539)" class="st23 st24 st25">F</text>
<text transform="matrix(0.8025 0.1593 -0.1947 0.9809 43.0271 55.2346)" class="st26 st24 st25">D</text>
</svg>
